<?xml version="1.0" standalone="no"?><!DOCTYPE svg PUBLIC "-//W3C//DTD SVG 1.1//EN" "http://www.w3.org/Graphics/SVG/1.1/DTD/svg11.dtd"><svg t="1499406442003" class="icon" style="" viewBox="0 0 1024 1024" version="1.1" xmlns="http://www.w3.org/2000/svg" p-id="5316" xmlns:xlink="http://www.w3.org/1999/xlink"><defs><style type="text/css"></style></defs><path d="M515.2 92.8l0 755.2-236.8-230.4c-12.8-12.8-32-12.8-44.8 0-12.8 12.8-12.8 32 0 44.8l291.2 284.8c0 0 3.2 0 3.2 3.2 3.2 3.2 3.2 3.2 6.4 3.2 3.2 0 6.4 3.2 9.6 3.2 0 0 0 0 3.2 0 0 0 0 0 0 0 3.2 0 9.6 0 12.8-3.2 3.2-3.2 6.4-3.2 9.6-6.4l288-288c6.4-6.4 9.6-16 9.6-22.4s-3.2-16-9.6-22.4c-12.8-12.8-32-12.8-44.8 0l-233.6 233.6L579.2 92.8c0-19.2-12.8-32-32-32S515.2 76.8 515.2 92.8z" p-id="5317"></path></svg>