<?xml version="1.0" standalone="no"?><!DOCTYPE svg PUBLIC "-//W3C//DTD SVG 1.1//EN" "http://www.w3.org/Graphics/SVG/1.1/DTD/svg11.dtd"><svg t="1502762977251" class="icon" style="" viewBox="0 0 1024 1024" version="1.1" xmlns="http://www.w3.org/2000/svg" p-id="2383" xmlns:xlink="http://www.w3.org/1999/xlink"><defs><style type="text/css"></style></defs><path d="M871.7 602.5c-27.1-27.1-58.6-48.5-92.7-63.4 50.9-36.7 84.2-96.5 84.2-164 0-111.4-90.6-202-202-202-24.8 0-48.5 4.5-70.4 12.7-5.4-6.8-11.3-13.3-17.5-19.6-43.8-43.8-102.1-68-164-68-62 0-120.2 24.1-164 68-43.8 43.8-68 102.1-68 164s24.1 120.2 68 164c18.6 18.6 39.8 33.6 62.8 44.8-11.2 3.4-22.2 7.4-33.1 12-41.1 17.4-78 42.2-109.7 73.9s-56.5 68.6-73.9 109.7c-18 42.6-27.1 87.7-27.1 134.3 0 20 1.7 39.8 5.1 59.2h65.2c-4.1-19.3-6.2-39.1-6.2-59.2 0-75.1 29.2-145.6 82.3-198.7 53.1-53.1 123.6-82.3 198.7-82.3s145.6 29.2 198.7 82.3c53.1 53.1 82.3 123.6 82.3 198.7 0 20.1-2.1 40-6.2 59.2h65.2c3.4-19.4 5.1-39.2 5.1-59.2 0-46.6-9.1-91.7-27.1-134.3-17.4-41.1-42.2-78-73.9-109.7-15.2-15.2-31.7-28.9-49.2-40.9 17.6-4.1 35.7-6.2 54.2-6.2 63.6 0 123.3 24.8 168.3 69.7 45 45 69.7 104.7 69.7 168.3 0 29.2-5.2 57.5-15.2 84h67.4c7.8-27 11.8-55.2 11.8-84-0.3-80.5-31.7-156.3-88.8-213.3zM409.2 498.2c-92.6 0-168-75.4-168-168s75.4-168 168-168 168 75.4 168 168-75.3 168-168 168z m252 14.9c-30.2 0-58.1-9.7-80.8-26.2 39.3-42.9 60.9-98.1 60.9-156.6 0-30.7-5.9-60.5-17.2-88 11.8-3.3 24.3-5.1 37.2-5.1 76.1 0 138 61.9 138 138s-62 137.9-138.1 137.9z" p-id="2384"></path></svg>