<?xml version="1.0" standalone="no"?><!DOCTYPE svg PUBLIC "-//W3C//DTD SVG 1.1//EN" "http://www.w3.org/Graphics/SVG/1.1/DTD/svg11.dtd"><svg t="1513408929035" class="icon" style="" viewBox="0 0 1024 1024" version="1.1" xmlns="http://www.w3.org/2000/svg" p-id="1853" xmlns:xlink="http://www.w3.org/1999/xlink"><defs><style type="text/css"></style></defs><path d="M512 0C229.229714 0 0 229.229714 0 512 0 794.770286 229.229714 1024 512 1024 794.770286 1024 1024 794.770286 1024 512 1024 229.229714 794.770286 0 512 0L512 0ZM805.668571 379.172571 474.550857 710.326857 474.514286 710.326857C459.264 725.613714 435.968 727.990857 418.194286 717.494857 414.902857 715.556571 411.830857 713.142857 408.978286 710.326857 408.978286 710.326857 408.978286 710.326857 408.978286 710.326857L218.331429 519.68C200.228571 501.577143 200.228571 472.246857 218.331429 454.144 236.434286 436.041143 265.764571 436.041143 283.867429 454.144L441.746286 612.022857 740.132571 313.636571C758.235429 295.570286 787.565714 295.570286 805.668571 313.636571 823.771429 331.739429 823.771429 361.106286 805.668571 379.172571L805.668571 379.172571Z" p-id="1854"></path></svg>