<?xml version="1.0" standalone="no"?><!DOCTYPE svg PUBLIC "-//W3C//DTD SVG 1.1//EN" "http://www.w3.org/Graphics/SVG/1.1/DTD/svg11.dtd"><svg t="1502259056489" class="icon" style="" viewBox="0 0 1024 1024" version="1.1" xmlns="http://www.w3.org/2000/svg" p-id="2413" xmlns:xlink="http://www.w3.org/1999/xlink"><defs><style type="text/css"></style></defs><path d="M511.970752 5.094527c-280.199005 0-509.452736 229.253731-509.452736 509.452737s229.253731 509.452736 509.452736 509.452736c101.890547 0 203.781095-35.661692 290.38806-91.701493 10.189055-5.094527 10.189055-20.378109 5.094527-35.661691-5.094527-10.189055-20.378109-10.189055-35.661691-5.094527-81.512438 50.945274-173.21393 86.606965-264.915423 86.606965-254.726368 0-463.60199-203.781095-463.60199-463.60199s203.781095-463.60199 463.60199-463.60199c254.726368 0 463.60199 203.781095 463.60199 463.60199 0 91.701493-30.567164 183.402985-81.512438 259.820895-5.094527 10.189055-5.094527 20.378109 5.094528 35.661692 10.189055 5.094527 20.378109 5.094527 35.661691-5.094528 56.039801-86.606965 86.606965-183.402985 86.606965-285.293532 5.094527-290.38806-224.159204-514.547264-504.358209-514.547264z" p-id="2414"></path><path d="M522.159807 173.21393c-10.189055 0-20.378109 10.189055-20.378109 20.37811v320.955224c0 5.094527 0 10.189055 5.094527 15.283582l178.308458 178.308457c5.094527 5.094527 10.189055 5.094527 15.283582 5.094528 5.094527 0 10.189055 0 15.283582-5.094528 10.189055-10.189055 10.189055-20.378109 0-35.661691l-173.213931-173.21393v-310.76617c5.094527-5.094527-10.189055-15.283582-20.378109-15.283582zM827.831449 850.78607c0 15.283582 10.189055 25.472637 25.472637 25.472636s25.472637-10.189055 25.472636-25.472636-10.189055-25.472637-25.472636-25.472637-25.472637 10.189055-25.472637 25.472637z" p-id="2415"></path></svg>