<?xml version="1.0" standalone="no"?><!DOCTYPE svg PUBLIC "-//W3C//DTD SVG 1.1//EN" "http://www.w3.org/Graphics/SVG/1.1/DTD/svg11.dtd"><svg t="1502246016638" class="icon" style="" viewBox="0 0 1638 1024" version="1.1" xmlns="http://www.w3.org/2000/svg" p-id="1780" xmlns:xlink="http://www.w3.org/1999/xlink"><defs><style type="text/css"></style></defs><path d="M1135.502222 250.584178H431.217778a55.751111 55.751111 0 0 0-55.751111 55.751111v395.946667a21.617778 21.617778 0 0 0 21.617777 21.617777h1.137778a21.617778 21.617778 0 0 0 21.617778-21.617777V321.900089a30.4128 30.4128 0 0 1 30.469689-30.355911h667.192889a30.4128 30.4128 0 0 1 30.5152 30.355911v380.359111a21.617778 21.617778 0 0 0 21.617778 21.617778 21.617778 21.617778 0 0 0 21.617777-21.617778v-395.946667a55.751111 55.751111 0 0 0-55.751111-55.728355z" p-id="1781"></path><path d="M932.932267 555.497244m-111.502223 0a111.502222 111.502222 0 1 0 223.004445 0 111.502222 111.502222 0 1 0-223.004445 0Z" p-id="1782"></path><path d="M1036.879644 688.036978c-3.003733-1.137778-6.007467-2.184533-9.102222-3.2768-2.093511-0.728178-4.187022-1.456356-6.280533-2.093511-5.370311-1.729422-10.740622-3.2768-16.201956-4.642134a8.453689 8.453689 0 0 0-4.187022-1.137777h-4.642133a9.454933 9.454933 0 0 0-4.187022 1.001244c-15.291733 8.192-36.317867 12.925156-57.617067 12.925156s-42.325333-4.733156-57.617067-12.925156a9.545956 9.545956 0 0 0-4.187022-1.137778h-3.413333a7.5776 7.5776 0 0 0-2.002489 0.273067q-9.0112 2.184533-17.749334 4.9152c-2.548622 0.728178-5.097244 1.6384-7.554844 2.4576-2.730667 0.910222-5.370311 1.911467-7.964444 2.821689q-10.922667 4.096-21.617778 9.0112c-9.0112 4.187022-17.931378 8.647111-26.487467 13.653333l-8.647111-13.653333-8.920178-14.108445-67.401955-107.3152a16.918756 16.918756 0 0 0-30.72 13.380267l13.835377 51.518578 15.200712 56.5248 23.483733 87.381333a20.343467 20.343467 0 0 0 2.002489 4.551111v4.004978a8.840533 8.840533 0 0 0 8.829155 8.829156H1135.729778a8.840533 8.840533 0 0 0 8.829155-8.829156v-31.493689a8.6016 8.6016 0 0 0-2.639644-6.280533 312.718222 312.718222 0 0 0-105.039645-66.3552z" p-id="1783"></path><path d="M1155.572622 756.895289a20.229689 20.229689 0 0 1 0.364089 3.777422v31.493689a20.047644 20.047644 0 0 1-2.059378 8.829156h3.242667a34.133333 34.133333 0 0 0 34.133333-34.133334v-9.966933zM713.568711 790.914844a27.739022 27.739022 0 0 1-1.592889-4.255288v-0.091023l-7.964444-29.673244H375.466667V766.862222a34.133333 34.133333 0 0 0 34.133333 34.133334h306.062222a20.047644 20.047644 0 0 1-2.059378-8.829156z" p-id="1784"></path></svg>