<?xml version="1.0" standalone="no"?><!DOCTYPE svg PUBLIC "-//W3C//DTD SVG 1.1//EN" "http://www.w3.org/Graphics/SVG/1.1/DTD/svg11.dtd"><svg t="1502243896308" class="icon" style="" viewBox="0 0 1024 1024" version="1.1" xmlns="http://www.w3.org/2000/svg" p-id="1071" xmlns:xlink="http://www.w3.org/1999/xlink"><defs><style type="text/css"></style></defs><path d="M876.333846 459.237309c-0.048095-4.715395-2.12643-9.181103-5.702885-12.255115L520.995885 146.484236c-6.138814-5.27719-15.211447-5.27719-21.350261 0L345.181647 279.238772l0-83.516112c0-9.045003-7.286963-15.990183-16.33299-15.990183l-72.068386 0c-9.045003 0-16.314571 6.944156-16.314571 15.990183l0 173.515892-90.454128 77.743642c-3.621481 3.110851-5.703909 7.647167-5.703909 12.420891l0 86.368066c0 6.40078 3.728928 12.216229 9.5454 14.886035 2.186805 1.003863 4.514827 1.493004 6.829546 1.493004 3.846608 0 7.65126-1.353834 10.682293-3.959172l43.63173-37.514405 0 265.322831c0 49.674353 40.412408 90.085738 90.085738 90.085738l412.754648 0c49.673329 0 90.085738-40.411385 90.085738-90.085738L807.922756 521.026584l42.2298 36.295648c4.876054 4.190439 11.753695 5.142114 17.585517 2.427282 5.830799-2.712785 9.534144-8.586562 9.468652-15.015995L876.333846 459.237309 876.333846 459.237309zM273.137821 212.403574l39.372729 0 0 94.915743-39.372729 33.839713L273.137821 212.403574 273.137821 212.403574zM558.959521 843.326081 449.218118 843.326081 449.218118 663.156652c0-9.030677 7.348362-16.379039 16.379039-16.379039l76.982302 0c9.030677 0 16.379039 7.348362 16.379039 16.379039L558.959521 843.326081 558.959521 843.326081 558.959521 843.326081zM775.163655 495.541143l0 290.458301c0 31.609928-25.717731 57.32766-57.32766 57.32766L591.716576 843.327104 591.716576 663.156652c0-27.095102-22.043039-49.137117-49.137117-49.137117l-76.982302 0c-27.094078 0-49.137117 22.043039-49.137117 49.137117l0 180.170452L305.081347 843.327104c-31.609928 0-57.326637-25.716708-57.326637-57.326637L247.75471 495.541143c0-0.959861-0.100284-1.895163-0.257873-2.809999l263.695774-226.730884 264.178775 227.050156C775.247566 493.865991 775.163655 494.692822 775.163655 495.541143L775.163655 495.541143zM521.868765 231.980445c-6.141884-5.276167-15.216563-5.27719-21.355377 0.00307l-323.447646 278.103926 0-43.164079 333.255013-286.420335 333.332784 286.48685 0.427742 41.918715L521.868765 231.980445 521.868765 231.980445z" p-id="1072"></path></svg>