<?xml version="1.0" standalone="no"?><!DOCTYPE svg PUBLIC "-//W3C//DTD SVG 1.1//EN" "http://www.w3.org/Graphics/SVG/1.1/DTD/svg11.dtd"><svg t="1502246352270" class="icon" style="" viewBox="0 0 1024 1024" version="1.1" xmlns="http://www.w3.org/2000/svg" p-id="2400" xmlns:xlink="http://www.w3.org/1999/xlink"><defs><style type="text/css"></style></defs><path d="M672.018 145.524c-43.245-45.256-100.85-70.18-162.203-70.18-61.353 0-118.957 24.924-162.202 70.18-42.88 44.876-66.497 104.443-66.497 167.728 0 63.285 23.616 122.852 66.497 167.728 11.97 12.527 25.046 23.489 38.992 32.803-47.224 16.106-100.818 43.473-147.736 90.007-77.782 77.147-117.353 186.8-117.61 325.91-0.031 16.953 13.687 30.723 30.641 30.756h0.059c16.927 0 30.666-13.708 30.698-30.642 0.292-157.36 54.953-268.473 162.466-330.251 81.517-46.841 165.102-47.382 166.381-47.383h0.134c3.044 0 5.983-0.45 8.76-1.276 57.37-2.697 110.872-27.28 151.62-69.924 42.881-44.876 66.496-104.442 66.496-167.728 0-63.285-23.616-122.852-66.496-167.728zM509.815 489.762c-92.25 0-167.3-79.181-167.3-176.51s75.05-176.51 167.3-176.51 167.3 79.183 167.3 176.51-75.05 176.51-167.3 176.51zM761.574 575.095c-14.618-8.591-33.431-3.706-42.022 10.91s-3.706 33.431 10.91 42.023c0.24 0.141 25.18 16.013 50.718 58.038 25.971 42.741 56.931 120.368 56.931 247.465 0 16.954 13.746 30.699 30.7 30.699s30.699-13.745 30.699-30.7c-0.001-274.207-132.303-355.124-137.936-358.435z" fill="#8A8A8A" p-id="2401"></path></svg>