<?xml version="1.0" standalone="no"?><!DOCTYPE svg PUBLIC "-//W3C//DTD SVG 1.1//EN" "http://www.w3.org/Graphics/SVG/1.1/DTD/svg11.dtd"><svg t="1502355224366" class="icon" style="" viewBox="0 0 1024 1024" version="1.1" xmlns="http://www.w3.org/2000/svg" p-id="2545" xmlns:xlink="http://www.w3.org/1999/xlink"><defs><style type="text/css"></style></defs><path d="M792.829 398.324l-25.03 0 0-61.026c0.386-5.695 0.58-11.373 0.58-16.885 0-66.647-26.01-129.305-73.24-176.433C647.912 96.853 585.114 70.9 518.329 70.9c-66.792 0-129.59 25.953-176.814 73.081-47.226 47.128-73.237 109.786-73.237 176.433l0 77.911-24.455 0c-67.586 0-122.575 54.865-122.575 122.315l0 303.867c0 67.447 54.989 122.312 122.575 122.312L792.83 946.819c67.589 0 122.575-54.865 122.575-122.312L915.405 520.633C915.404 453.19 860.418 398.324 792.829 398.324zM324.572 320.414c0-106.605 86.916-193.335 193.755-193.335 106.835 0 193.75 86.73 193.75 193.335 0 4.518-0.173 9.213-0.507 13.93l-0.069 0.992 0 62.989L324.572 398.325 324.572 320.414zM859.109 824.506l-0.005 0c0 36.466-29.729 66.13-66.274 66.13L243.823 890.636c-36.546 0-66.277-29.663-66.277-66.13L177.546 520.634c0-36.466 29.731-66.13 66.277-66.13l24.45 0 499.525 0 25.03 0c36.546 0 66.28 29.662 66.28 66.13l0 303.872L859.109 824.506z" p-id="2546"></path><path d="M521.38496 596.48m-54.61504 0a10.667 10.667 0 1 0 109.23008 0 10.667 10.667 0 1 0-109.23008 0Z" p-id="2547"></path><path d="M552.10496 782.50496c0 16.0256-12.98944 29.01504-29.01504 29.01504l0 0c-16.0256 0-29.01504-12.98944-29.01504-29.01504l0-122.88c0-16.0256 12.98944-29.01504 29.01504-29.01504l0 0c16.0256 0 29.01504 12.98944 29.01504 29.01504L552.10496 782.50496z" p-id="2548"></path></svg>