<?xml version="1.0" standalone="no"?><!DOCTYPE svg PUBLIC "-//W3C//DTD SVG 1.1//EN" "http://www.w3.org/Graphics/SVG/1.1/DTD/svg11.dtd"><svg t="1502246050459" class="icon" style="" viewBox="0 0 1024 1024" version="1.1" xmlns="http://www.w3.org/2000/svg" p-id="3617" xmlns:xlink="http://www.w3.org/1999/xlink"><defs><style type="text/css"></style></defs><path d="M506.200412 569.58758c-10.136871 0-19.744693-3.303232-27.582195-9.397021L84.475462 346.091366a30.704302 30.704302 0 0 1-7.054673-5.269004c-17.629519-17.630542-17.452487-46.495964 0.396019-64.34447a30.715559 30.715559 0 0 1 7.895831-5.710049L487.338832 68.423369c7.997138-6.139837 17.708314-9.463536 27.90556-9.463536 9.773598 0 19.052938 3.069919 26.729782 8.751315l394.020981 187.199543a30.721699 30.721699 0 0 1 8.530281 6.01704c8.573259 8.570189 13.358239 20.48045 13.127995 32.67519-0.226151 11.936867-5.028527 23.187095-13.525038 31.679514a30.65723 30.65723 0 0 1-6.515391 4.967128L534.884708 559.514153c-8.142447 6.529717-18.153452 10.073426-28.684296 10.073427zM145.527956 309.383326l360.574219 195.865923 370.176924-210.733539-360.904747-171.46621-369.846396 186.333826z" fill="" p-id="3618"></path><path d="M503.537769 701.069123c-9.768481 0-19.503193-3.118014-27.561729-9.363252L81.814866 477.595422c-14.898315-8.093329-20.415982-26.731828-12.322654-41.630142 8.094352-14.899338 26.732851-20.413935 41.630143-12.322654l392.320247 213.110679L904.576585 408.394341c14.731516-8.388041 33.478486-3.242857 41.866527 11.490705 8.388041 14.733563 3.243881 33.478486-11.490706 41.866526L532.201599 691.031513a45.905516 45.905516 0 0 1-28.66383 10.03761z" fill="" p-id="3619"></path><path d="M503.537769 832.857659c-9.768481 0-19.503193-3.118014-27.561729-9.363252L81.814866 609.383958c-14.898315-8.092305-20.415982-26.730805-12.322654-41.630143 8.092305-14.898315 26.732851-20.413935 41.630143-12.32163l392.320247 213.109656 401.133983-228.357942c14.731516-8.388041 33.479509-3.243881 41.866527 11.490706 8.388041 14.733563 3.243881 33.478486-11.490706 41.866526L532.201599 822.820048a45.905516 45.905516 0 0 1-28.66383 10.037611z" fill="" p-id="3620"></path><path d="M503.537769 964.647217c-9.768481 0-19.503193-3.118014-27.561729-9.362228L81.814866 741.17454c-14.898315-8.093329-20.415982-26.731828-12.322654-41.630143 8.092305-14.899338 26.732851-20.415982 41.630143-12.322653l392.320247 213.109655 401.133983-228.357941c14.731516-8.388041 33.479509-3.243881 41.866527 11.490705 8.388041 14.733563 3.243881 33.478486-11.490706 41.866527L532.201599 954.608583a45.895283 45.895283 0 0 1-28.66383 10.038634z" fill="" p-id="3621"></path></svg>